<?xml version="1.0" encoding="UTF-8" standalone="no"?>
<svg
   version="1.0"
   viewBox="0 0 300.000000 300.000000"
   preserveAspectRatio="xMidYMid meet"
   id="svg1"
   sodipodi:docname="logo.svg"
   inkscape:version="1.4.2 (f4327f4, 2025-05-13)"
   xmlns:inkscape="http://www.inkscape.org/namespaces/inkscape"
   xmlns:sodipodi="http://sodipodi.sourceforge.net/DTD/sodipodi-0.dtd"
   xmlns="http://www.w3.org/2000/svg"
   xmlns:svg="http://www.w3.org/2000/svg">
  <defs
     id="defs1" />
  <sodipodi:namedview
     id="namedview1"
     pagecolor="#ffffff"
     bordercolor="#000000"
     borderopacity="0.25"
     inkscape:showpageshadow="2"
     inkscape:pageopacity="0.0"
     inkscape:pagecheckerboard="0"
     inkscape:deskcolor="#d1d1d1"
     inkscape:zoom="1.8883333"
     inkscape:cx="41.835834"
     inkscape:cy="128.94969"
     inkscape:window-width="2560"
     inkscape:window-height="1351"
     inkscape:window-x="-9"
     inkscape:window-y="1071"
     inkscape:window-maximized="1"
     inkscape:current-layer="svg1" />
  <metadata
     id="metadata1">
Created by potrace 1.10, written by Peter Selinger 2001-2011
</metadata>
  <g
     transform="matrix(0.19250687,0,0,-0.19250687,-146.10352,441.79278)"
     fill="#000000"
     stroke="none"
     id="g1">
    <path
       d="m 1765,2271 c -101,-36 -224,-107 -352,-202 l -42,-32 -81,17 c -92,18 -138,20 -174,6 -34,-13 -33,-36 4,-55 36,-18 97,-81 105,-106 4,-12 -12,-57 -44,-122 -62,-124 -84,-218 -84,-352 0,-108 18,-197 57,-295 l 25,-61 -31,-67 c -48,-103 -49,-244 -1,-259 6,-2 14,10 18,27 4,17 20,43 37,58 17,15 49,45 72,67 22,21 45,38 50,37 5,-2 35,6 66,18 44,16 62,19 83,11 35,-14 42,0 21,45 -21,45 -72,78 -148,98 -33,8 -63,21 -67,28 -13,19 -11,57 6,121 31,120 99,215 235,328 73,61 74,61 88,40 23,-34 58,-27 92,21 17,23 35,60 42,82 6,23 17,47 23,54 10,11 14,8 19,-15 11,-42 74,-103 108,-103 57,0 78,116 37,210 l -21,49 31,40 c 106,133 143,301 67,301 -13,0 -43,7 -66,15 -55,19 -113,18 -175,-4 z m 265,-79 c 0,-22 -37,-113 -67,-164 -33,-56 -177,-218 -194,-218 -5,0 -9,25 -9,55 0,50 -3,56 -25,65 -22,8 -23,13 -15,35 27,71 93,150 121,143 8,-1 30,9 49,24 33,25 115,67 133,68 4,0 7,-4 7,-8 z m -230,-22 c 0,-13 -47,-58 -78,-74 -41,-21 -97,-25 -97,-7 0,19 65,70 111,86 37,12 64,11 64,-5 z m 50,-10 c 0,-5 -7,-10 -15,-10 -8,0 -15,5 -15,10 0,6 7,10 15,10 8,0 15,-4 15,-10 z m -548,-307 c 7,-15 24,-30 38,-33 l 25,-6 -23,-13 c -12,-6 -43,-11 -69,-10 -37,2 -49,-1 -64,-20 -31,-38 -22,-9 17,52 19,31 42,57 49,57 8,0 20,-12 27,-27 z m 251,-218 c -80,-63 -187,-172 -224,-229 -41,-61 -50,-61 -24,1 34,81 3,113 -42,43 -39,-62 -59,-84 -71,-76 -21,13 -14,94 13,151 32,67 73,95 141,95 76,0 118,17 181,69 l 58,49 3,-36 c 3,-33 -1,-41 -35,-67 z m -290,-550 c 14,-46 15,-48 16,-17 1,27 4,32 19,28 9,-3 31,-8 47,-12 17,-4 47,-15 67,-25 53,-27 93,-88 48,-74 -11,4 -44,-3 -74,-14 -29,-11 -63,-17 -74,-14 -14,3 -22,-1 -27,-16 -3,-11 -33,-43 -65,-71 -32,-28 -62,-60 -66,-72 -10,-32 -24,-2 -24,54 0,52 25,125 67,190 16,26 28,63 31,93 6,54 4,56 35,-50 z"
       id="path1" />
  </g>
</svg>
